<?xml version="1.0" encoding="UTF-8"?><svg id="Calque_2" xmlns="http://www.w3.org/2000/svg" viewBox="0 0 154.64 153.53"><defs><style>.cls-1{fill:#ea5430;}.cls-2{fill:#fff;}</style></defs><g id="Calque_1-2"><g><rect class="cls-1" width="154.64" height="153.53" rx="17.86" ry="17.86"/><path class="cls-2" d="M130.75,114.48l-.08,.25c-.4,.19-.79,.54-1.19,.54-3.56-.03-6.27,2.24-9.37,3.43-1.99,.76-4.06,1.9-6.14,1.41-3.35-.78-6.57-1.94-10.03-.65-.41,.15-1.01-.21-1.52-.31-1.23-.23-2.49-.68-3.7-.6-2.78,.19-5.45,.66-8.04-1.15-1.34-.93-2.26-.13-2.22,1.67,1.04-.84,2.12-1.59,2.41,.71-1.78,.19-3.66,.07-5.3,.65-1.71,.61-3.02,.31-4.37-.59-1.78-1.18-3.23-1.12-4.53,.8-.42,.62-1.37,.88-2.08,1.31,.64-.72,1.28-1.43,1.94-2.17-3.9-1.74-4.32-3.65-1.73-5.86,.91,1.37,1.83,2.76,2.82,4.25,1.57-.9,1.29-1.87,.37-2.78-1.57-1.56-1.33-3.02-.59-5.02,1.06-2.83,1.25-5.97,2.09-8.9,.39-1.37-.66-3.58,1.89-3.96-.26,1.28-.51,2.55-.77,3.83,.88-.13,1.76-.26,2.65-.37,.13-.02,.28,.09,.76,.26-.22,.78-.22,1.79-.72,2.37-.82,.94-1.88,1.76-2.98,2.36-2.14,1.17-1.56,2.4-.31,3.76-3.43,2.35,1.1,3.2,.86,4.97,.4-.45,.74-.87,.88-1.35,.42-1.43-.72-3.6-1.82-3.58,1.02-2.41,1.71-2.81,2.77-1.71,.68-1.06,1.15-2.45,2.11-3.12,1.41-.98,1.3-1.9,.88-3.24-.16-.51,.25-1.27,.57-1.81,.2-.34,.71-.49,1.08-.72-.37-.32-.69-.75-1.11-.95-.9-.41-1.86-.69-2.93-1.07l-2,.41c.49-1.08,.55-2.33,2.17-2.76,.6-.16,.81-1.81,1.17-2.8,.66-1.79,1.63-3.54,1.86-5.39,.38-2.97,2.53-4.22,4.72-5.83l2.58,1.73c-1.75,.8-3.65,1.17-4.65,2.32-.58,.67,.31,2.6,.51,3.82,1.76-.3,3.08-.41,4.31-.79,.56-.17,1.21-.81,1.38-1.37,.57-1.89,1.46-2.47,3.22-1.72,1.89,.81,3.56,1.23,5.8,.45,1.1-.38,3.04,1.66,4.59,2.6,.5-.86,4.46-1.63,5.64-.6,1.67,1.46,3.31,2.95,4.97,4.43l.42-.39c-1.26-1.46-2.51-2.92-3.79-4.41,.63-.58,1.12-.96,1.51-1.43,.12-.14,.02-.63-.15-.78-.17-.15-.58-.19-.82-.1-3.58,1.33-6.26,1.05-9.24-1.08,.23-.55,.48-1.14,.84-1.99-1.56,.13-2.88,.24-4.43,.36l1.19,2.03c-4.03-1.7-7.74-3.25-11.45-4.83-2.3-.99-2.13-3.37-2.5-5.22-.17-.86,.92-2.34,1.83-2.96,1.34-.91,1.87-2,2.54-3.41,.82-1.73,2.65-3.1,4.28-4.3,1.76-1.3,3.8-2.23,5.72-3.32,1.42-.81,2.83-1.61,4.67-2.66,.02,1.15,.13,1.79,.03,1.82-2.13,.72-1.1,2.87-1.87,4.2-.07,.11,.74,.73,1.14,1.12,.69-.8,1.74-1.5,1.99-2.42,.36-1.32,.03-2.82,.22-4.21,.1-.73,.68-1.39,1.05-2.11l1.32,1.92c1.86-1.59,3.48-2.99,5.1-4.38-2.4,2.95-2.14,5.65,1.37,7.63-.26-1.75-.92-3.19-.52-4.23,.6-1.59,0-2.42-.92-3.38-1.47-1.84-.13-3.37,.79-4.69,1.29-1.86,1.86-3.58,.48-5.51,1.01-.06,1.94-.11,2.87-.16l-1.37,.53c.63,.4,1.23,1.07,1.91,1.15,2,.24,3.29,3.2,5.79,1.36,1.29,3,2.55,5.92,3.81,8.83,.36,.83,.58,1.79,1.17,2.42,1.1,1.17,1.64,2.22,.32,3.54-.05,.05-.08,.15-.07,.21,.66,3.14-.5,6.6,1.54,9.5,2.06,2.93,1.35,6.19-1.8,8.3-.61,.41-1.16,.99-1.54,1.61-1.34,2.17-2.62,4.37-3.86,6.59-1.91,3.41-3.77,6.84-5.76,10.46l-2.98-1.41c2.73,1.3,3.66,3.35,1.97,5.88-.47,.7-2.25,.52-3.43,.75l-.13-.54c-1.04,.93-2.08,1.85-3.12,2.78,2.58-.57,5.03-1.86,8.14-.71-.47,1.13-.88,2.13-1.31,3.17,2.85,.85-.6,3.66,1.49,5.08,.65-7.58,3.23-14.63,7.05-21.57,.52,.63,1.36,1.2,1.53,1.94,1.23,5.13,2.22,10.31,3.5,15.42,.58,2.33-1.16,3.27-2.38,3.21-2.68-.12-2.7,1.49-2.95,3.22Zm-7.91-45.36c-.61,2.63,4.48,5.49-.52,7.94l.99,1.08c3.74-3.83,3.5-7.64-.46-9.02Zm-3.72,2.53l-.21,1.01,4,1.83c-.34-1.18-.34-2.45-.86-2.73-.78-.41-1.93-.11-2.93-.12Zm-5.15,21.11c-3.37,.42-1.23,2.65-1.81,3.85l2-.6-.19-3.26Zm8.24-27.79c-1.38-1.56-2.51-2.84-3.65-4.11l-.46,.42q1.86,3.5,4.1,3.69Zm-26.66,37.44c1.57,.4,3.67-1.24,4.39-3.76-1.64,1.41-3.01,2.58-4.39,3.76Zm-8.12-8.32c.21-1.47,.34-2.37,.53-3.7-1.16,.87-1.73,1.3-2.25,1.7l1.73,2Zm42.19,2.34l1.16,4.03c1.75-1.85,.55-2.74-1.16-4.03Z"/><path class="cls-2" d="M107.14,53.34c-2.62-.02-4.42,1.72-6.21,3.41-1.29,1.21-2.44,2.59-3.66,3.88-1.41,1.49-3.4,1.04-4.16-.93-.02-.06-.03-.13-.05-.2-1.11-3.03-.83-3.53,2.23-4.22-1.06-2-2.13-4.02-3.2-6.04l-.31,.08c.18,1.03,.29,2.09,.56,3.09,.42,1.55-.68,2.95-2.24,2.76-1.96-.24-3.72,1.51-3.58,3.49,.03,.35-.23,.73-.16,1.39,1.62-1.42,3.24-2.84,4.87-4.26l2.04,5.76c-2.3,2.69-5.53,4.75-6.62,8.84-.33,1.25-1.61,2.2-2.44,3.31-.65,.86-1.36,1.69-1.89,2.64-1.71,3.05-3.33,6.15-5.02,9.21-.42,.76-1.08,1.39-1.42,2.18-.91,2.09-1.92,4.08-3.75,5.42l-34.63-3.11c-1.32-1.29-3.93-.81-4.18-3.07-1.18-.78-2.17-1.42-3.14-2.08-.41-.28-.76-.84-1.18-.9-1.51-.19-3.05-.19-4.57-.32-1.31-.11-2.54-2.03-1.88-3.27,1.01-1.89,2.22-3.7,3.56-5.35,1.05-1.3,2.45-2.27,3.63-3.46,.93-.94,1.76-2,2.64-3.01,.02-.52-.17-1.36,.12-1.93,.93-1.83,.06-2.92-.91-4.31-.9-1.29-1.32-2.99-1.86-4.54-.22-.61,.01-1.52-.33-1.95-1.9-2.38-.72-5.19-.97-7.78-.15-1.5,.81-1.69,2.06-1.36,1.07,.29,2.23,.32,3.35,.31,3.93-.04,7.86-.15,11.61-.23l1.2,3.35c.43-.9,.74-1.78,.52-2.48-.7-2.24,.85-3.5,1.75-5.03,2.65-4.5,6.47-8.09,8.31-13.25,1.43-4.02,5.59-4.07,8.67-5.64,.03-.02,.1,.09,.16,.1,1.65,.26,3.42,.51,4.53-1.13,1.59-2.33,3.92-1.65,5.73-1.4,2.08,.3,3.89,1.1,5.22-1.38,2.55,2.56,4.94,5,7.39,7.37,.45,.43,1.36,.96,1.72,.76,1.63-.92,2.48,.02,3.33,1.21,.13,.18,.3,.32,.45,.48l.16-.14-.66-1.25,.33-.61c1,.42,2.34,.55,2.92,1.33,1.67,2.24,4.28,3.18,6.72,2.13l1.73,1.82c1.02-1.21,1.3,.11,1.58,.65,.39,.74,.53,1.63,.88,2.77l.39-1.71c.57,1.05,1.19,2.02,1.63,3.07,.31,.74,.38,1.6,.54,2.4,.1,.52,.08,1.1,.3,1.56,1.21,2.58,.64,4.31-1.7,5.2,.48,1.71,1.52,3.33,.4,5.2l-2.5,1.17Zm-33.24-14.25c.16,4.1,.46,8.19,.73,12.28,0,.13,.03,.3,.11,.38,1.7,1.88,1.24,3.59-.33,5.29-.19,.21-.06,.94,.13,1.31,.34,.66,.83,1.24,1.26,1.86l-.87,.53,1.9,1.99-1.07-6.52c1.62-.98,.93-2.34,.47-3.89-.6-2.02-.92-4.15-1.19-6.27-.24-1.88-.31-3.79-.32-5.69,0-.81,.35-1.63,.54-2.45,.89-.63,1.75-1.34,2.69-1.88,.92-.53,1.99-1.35,2.88-1.21,1.44,.22,1.51-.63,1.95-1.62-2.7,.75-2.75,.68-3.26-4.03-.16,2.99-2.24,4.83-3.68,7.07-.31,.48-.38,1.13-.56,1.71-.49,.38-1.42,.78-1.4,1.13Zm-27.34,12.33c-.78,1.09-.77,2.6-.25,4.8,.66,2.74,.74,5.48-.45,8.15-.28,.63-.38,1.36-.57,2.04,2.02-1.88,2.53-10.65,1.26-15Zm9.36-10.91l-.4-.36c-1.33,1.59-2.66,3.18-3.98,4.76,.75,.57,2.69-.24,4.34-2.02l-1.9,.06,1.93-2.43Zm.29,25.41l-.02,.25,2.45,.22,.66,9.04h.31c-.05-3.07-.09-6.13-.14-9.22l-3.26-.29Zm-2.47-19.17l.7,.89,4.14-3.89-.57-.66-4.27,3.66Zm-9.73,33.45l.71-.47,1.35,2,.31-.2-2.34-4.81-.35-.05,.32,3.53Zm14.18-39.73c.32-.61,.74-1.13,.87-1.73,.09-.39-.12-1.16-.39-1.28-.51-.23-1.15-.11-1.44-.12l.96,3.13Zm-14.98,33.82l.27-.56-2.49-1.85-.43,.43,.12,1.75,2.53,.23Zm-7.38-1.16l-1.86-3.55c-.39,1.82-.71,3.59,1.86,3.55Zm10.04-.36c-.56,3.02-.24,3.68,1.66,3.84l-1.66-3.84Zm14.91-33.51l.63,.25,1.33-3.35-.71-.28-1.24,3.38ZM25.66,81.85l.5,.12c.23-.51,.7-1.09,.61-1.53-.1-.5-.71-.87-1.1-1.3l-.44,.43,.43,2.27ZM107.7,49.74l.5-.54c-.72-.73-1.45-1.46-2.17-2.2l-.71,.81c.79,.64,1.58,1.28,2.38,1.93Z"/><path class="cls-2" d="M66.79,96.38l-1.18,4.04,.26,.37c.57-.77,1.07-1.81,1.73-2.23,.8-.51,1.73-.5,2.82-.76-.09,1.92-.05,3.59-.27,5.2-.23,1.74-.65,3.44-1.06,5.13-.38,1.61-1.13,2.27-2.27,2.04-.54-.11-1.13,.2-1.7,.32v.45l.83,.15,.09,.52-2,1.03c-.47-1.12-.86-1.61-1.91-.78-.77,.61-1.94-.02-2.93-.1l-.16,.57c1.05,.52,2.09,1.04,3.1,1.53l-2.56,1.88c.98,1.45,3.6,.86,4.3-.77,1.21-2.82,2.7-3.09,3.72-.46,.58,1.51,.64,3.52,1.25,4.98,.7,1.68,1.74,3.03,2.65,4.49,.24,.38,.56,.65,.71,.83-1.87,1.35-3.67,2.64-5.55,4l1.23,.3c-2.01,2.04-3.85,3.9-5.69,5.76l-.17-.23,1.78-2.57-.06-.2c-.6,.51-1.22,.95-1.79,1.54-1.34,1.42-2.72,2.22-4.33,1.66-.44-.15-1.19,.06-1.47,.53-1.01,1.72-2.19,1.35-3.26,1.01-1.26-.4-2.42-1.26-3.65-1.85-.37-.18-.8-.07-1.18-.2-.63-.23-1.23-.67-1.87-.8-.91-.18-.64-1.21-.83-2.04-.27-1.15-.78-2.29-1.41-3.05-2.1-2.55-4.04-5.45-7-6.01-1.09-.21-2.08-1.21-3.16-1.88,1.48-2.67,2.86-5.17,4.25-7.68l-.33-.46c-.95,1.32-1.84,2.76-2.86,3.93-1.5,1.7-3.03,3.38-4.68,4.65-.47,.37-1.37-.73-2.09-1.1-.44-.22-.91-.31-1.35-.51-.67-.3-1.52-.37-1.95-1.05-.8-1.24-1.49-1.1-2.34-.13-.12,.14-.31,.13-.18,.08-.38-.72-.59-1.58-.93-1.67-1.4-.4-2.83-.63-4.26-.78-.5-.05-1.03,.28-1.74,.5l-.42-1.65,.53-.74c.3-.43,.61-.84,.88-1.31,.15-.26,.18-.65,.32-.92,.51-1.01,1.18-1.9,1.53-3,.4-1.26,.87-1.52,1.72-1.52,.52,0,1.21-.56,1.59-1.19,.57-.96,.89-2.25,1.4-3.31,1.55-3.22,3.13-6.4,4.7-9.6l9.44,.74v2.02c-.45-.22-.77-.49-1.11-.52-.73-.05-1.3,.53-1.21,1.67,.06,.65,.51,1.65,.82,1.66,.51,.01,1.06-.64,1.58-1.07,.64-.52,1.27-1.05,1.88-1.64,.2-.19,.34-.56,.5-.85-.23-.12-.46-.23-.68-.38-.44-.28-.87-.58-1.3-.87l8.95,.7-.03,5.09-1.91,1.03c.87,2.25,1.9-.45,2.69,.55-.49,2.11-2.84,1.08-2.89,3.9-2.37,1.48-6.03,7.73-6.58,11.45,.84-.75,1.69-1.22,2.27-2.1,1.26-1.91,2.33-4.1,3.57-6.04,.49-.77,1.24-1.18,1.87-1.76l.25,.48-.94,2.16c.81,2.88-1.6,2.07-2.07,3.85l1.27-.5,.39,1.52c.55-2.03,.92-3.61,1.41-5.09,.39-1.17,.94-2.24,1.42-3.36,.77,.88,.77,.9-.37,2.51,.44,.31,.79,.74,1.17,.75,.2,0,.68-.93,.62-1.11-.44-1.36,.1-2.09,.74-2.89,.17-.21,.33-.86,.25-1.04-.15-.31-.5-.62-.73-.55-.85,.26-1.47,1.01-1.68,2.36,.14-1.01,.18-2.09,.47-3,.15-.45,1.05-.96,1.13-.81,1.23,2.16,3.04,1.69,4.59,2.04l-.21,1.79c1.66-1.23,2.77,.57,4.23,.24l-.49,1.1c1.92-.75,3.34,.77,5.16,1.8-.36-.61-.52-.91-.7-1.18-2.1-3.14-5-3.93-7.72-5.04-1.44-.59-2.72-1.44-3.99-2.45-1.44-1.14-1.79-3.11-1.04-5.54l7.74,.61-.79,1.5,3.16,.25c-.06,1.4-.02,2.48,1.04,2.57l-.02-4.05,7.02,.55Zm-14.32,15.61c-1.38,1.97-1.59,2.98-.99,3.46,.52-.85,1.03-1.56,1.44-2.38,.51-.99,.06-1.12-.47-1.08,1.01-.62,2.03-1.25,3.07-1.89-1.25-1.45-2.05,.95-3.1,1.01l.05,.88Zm-1.15,7.24c-.57-.39-.89-2.3-1.54-1.16-.72,1.27,.43,2.21,.77,3.15l.77-1.99Zm16.64,3.43c-.08-2.17-1.26-3.21-2.01-2.56,.65,.83,1.33,1.69,2.01,2.56Zm-4.78-24.99v-.56l-2.35,.06v.66c.75,1.15,1.56-.05,2.35-.17Zm-14.59,22.99l-.2-.77-2.1,1.28,.23,.9c.69-.47,1.38-.94,2.07-1.41Zm-13.78-8.53l.26-.21-1.37-4.2-.31,.26c.48,1.38,.95,2.77,1.43,4.15Z"/></g></g></svg>